<svg xmlns="http://www.w3.org/2000/svg" x="0px" y="0px"
width="144" height="144"
viewBox="0 0 172 172"
style=" fill:#000000;"><g fill="none" fill-rule="nonzero" stroke="none" stroke-width="1" stroke-linecap="butt" stroke-linejoin="miter" stroke-miterlimit="10" stroke-dasharray="" stroke-dashoffset="0" font-family="none" font-weight="none" font-size="none" text-anchor="none" style="mix-blend-mode: normal"><path d="M0,172v-172h172v172z" fill="none"></path><path d="M86,172c-47.49649,0 -86,-38.50351 -86,-86v0c0,-47.49649 38.50351,-86 86,-86v0c47.49649,0 86,38.50351 86,86v0c0,47.49649 -38.50351,86 -86,86z" fill="#e2e8f0"></path><g fill="#334155"><path d="M86,21.51021c-7.12335,0 -12.89796,5.77461 -12.89796,12.89796c0.00364,4.60435 2.46149,8.85758 6.44898,11.15976v14.63616h-19.34694c-14.2458,0 -25.79592,11.55012 -25.79592,25.79592v25.79592h-6.44898c-2.32573,-0.03289 -4.48901,1.18903 -5.66148,3.19787c-1.17247,2.00884 -1.17247,4.49337 0,6.50221c1.17247,2.00884 3.33575,3.23077 5.66148,3.19787h6.44898v12.89796c0,7.12612 5.77184,12.89796 12.89796,12.89796h77.38775c7.12612,0 12.89796,-5.77184 12.89796,-12.89796v-12.89796h6.44898c2.32573,0.03289 4.48901,-1.18903 5.66148,-3.19787c1.17247,-2.00884 1.17247,-4.49337 0,-6.50221c-1.17247,-2.00884 -3.33575,-3.23077 -5.66148,-3.19787h-6.44898v-25.79592c0,-14.2458 -11.55012,-25.79592 -25.79592,-25.79592h-19.34694v-14.64876c3.9836,-2.29992 6.44084,-6.54731 6.44898,-11.14716c0,-7.12335 -5.77461,-12.89796 -12.89796,-12.89796zM63.42857,86c5.33975,0 9.67347,4.33371 9.67347,9.67347c0,5.33975 -4.33371,9.67347 -9.67347,9.67347c-5.33975,0 -9.67347,-4.33371 -9.67347,-9.67347c0,-5.33975 4.33371,-9.67347 9.67347,-9.67347zM108.57143,86c5.33975,0 9.67347,4.33371 9.67347,9.67347c0,5.33975 -4.33371,9.67347 -9.67347,9.67347c-5.33975,0 -9.67347,-4.33371 -9.67347,-9.67347c0,-5.33975 4.33371,-9.67347 9.67347,-9.67347zM73.10204,124.69388h25.79592c3.55984,0 6.44898,2.88914 6.44898,6.44898c0,3.55984 -2.88914,6.44898 -6.44898,6.44898h-25.79592c-3.55984,0 -6.44898,-2.88914 -6.44898,-6.44898c0,-3.55984 2.88914,-6.44898 6.44898,-6.44898z"></path></g></g></svg>