<?xml version="1.0" encoding="UTF-8"?>
<svg xmlns="http://www.w3.org/2000/svg" xmlns:xlink="http://www.w3.org/1999/xlink" viewBox="0 0 30 30" width="30px" height="30px">
<g id="surface4105508">
<path style=" stroke:none;fill-rule:nonzero;fill:rgb(20.392157%,28.627452%,36.862746%);fill-opacity:1;" d="M 7 4 L 9 7.25 L 9 22.75 L 6.875 26 L 21.957031 26 L 25 22 L 14 22 L 14 4 Z M 16 4.050781 L 16 6.058594 C 20.492188 6.558594 24 10.375 24 15 C 24 16.847656 23.4375 18.570312 22.480469 20 L 24.785156 20 C 25.554688 18.496094 26 16.800781 26 15 C 26 9.273438 21.597656 4.558594 16 4.050781 Z M 6.875 7.609375 C 5.09375 9.566406 4 12.15625 4 15 C 4 17.835938 5.089844 20.417969 6.855469 22.371094 L 7 22.15625 L 7 19.105469 C 6.363281 17.871094 6 16.480469 6 15 C 6 13.519531 6.363281 12.128906 7 10.894531 L 7 7.816406 Z M 6.875 7.609375 "/>
</g>
</svg>
